<svg width="20.000000" height="20.000000" viewBox="0 0 20 20" fill="none" xmlns="http://www.w3.org/2000/svg" xmlns:xlink="http://www.w3.org/1999/xlink">
	<desc>
			Created with Pixso.
	</desc>
	<defs>
		<clipPath id="clip2_190">
			<rect id="Mail" width="20.000000" height="20.000000" fill="white" fill-opacity="0"/>
		</clipPath>
	</defs>
	<g clip-path="url(#clip2_190)">
		<path id="Icon" d="M10 9.88L2 5.88C2.03 5.37 2.25 4.89 2.62 4.54C2.99 4.19 3.48 3.99 4 4L16 4C16.51 3.99 17 4.19 17.37 4.54C17.74 4.89 17.96 5.37 17.99 5.88L10 9.88ZM10 12.11L18 8.11L18 14C18 14.53 17.78 15.03 17.41 15.41C17.03 15.78 16.53 16 16 16L4 16C3.46 16 2.96 15.78 2.58 15.41C2.21 15.03 2 14.53 2 14L2 8.11L10 12.11Z" fill="#9CA3AF" fill-opacity="1.000000" fill-rule="evenodd"/>
	</g>
</svg>
