<svg width="20.000000" height="20.000000" viewBox="0 0 20 20" fill="none" xmlns="http://www.w3.org/2000/svg" xmlns:xlink="http://www.w3.org/1999/xlink">
	<desc>
			Created with Pixso.
	</desc>
	<defs>
		<clipPath id="clip2_186">
			<rect width="20.000000" height="20.000000" fill="white" fill-opacity="0"/>
		</clipPath>
	</defs>
	<g clip-path="url(#clip2_186)">
		<path d="M2 3C2 2.44 2.44 2 3 2L5.15 2C5.64 2 6.05 2.35 6.13 2.83L6.87 7.27C6.95 7.7 6.73 8.13 6.33 8.33L4.79 9.1C5.9 11.87 8.12 14.09 10.89 15.2L11.66 13.66C11.86 13.26 12.29 13.04 12.72 13.12L17.16 13.86C17.64 13.94 18 14.35 18 14.84L18 17C18 17.55 17.55 18 17 18L15 18C7.82 18 2 12.17 2 5L2 3Z" fill="#9CA3AF" fill-opacity="1.000000" fill-rule="nonzero"/>
	</g>
</svg>
