<svg viewBox="0 0 20 20" fill="none" xmlns="http://www.w3.org/2000/svg">

   <g clip-path="url(#clip2_190)"  id="mail">
		<path id="Icon" d="M10 9.88L2 5.88C2.03 5.37 2.25 4.89 2.62 4.54C2.99 4.19 3.48 3.99 4 4L16 4C16.51 3.99 17 4.19 17.37 4.54C17.74 4.89 17.96 5.37 17.99 5.88L10 9.88ZM10 12.11L18 8.11L18 14C18 14.53 17.78 15.03 17.41 15.41C17.03 15.78 16.53 16 16 16L4 16C3.46 16 2.96 15.78 2.58 15.41C2.21 15.03 2 14.53 2 14L2 8.11L10 12.11Z" fill="#9CA3AF" fill-opacity="1.000000" fill-rule="evenodd"/>
	</g>

    <g clip-path="url(#clip2_186)" id="phone">
		<path d="M2 3C2 2.44 2.44 2 3 2L5.15 2C5.64 2 6.05 2.35 6.13 2.83L6.87 7.27C6.95 7.7 6.73 8.13 6.33 8.33L4.79 9.1C5.9 11.87 8.12 14.09 10.89 15.2L11.66 13.66C11.86 13.26 12.29 13.04 12.72 13.12L17.16 13.86C17.64 13.94 18 14.35 18 14.84L18 17C18 17.55 17.55 18 17 18L15 18C7.82 18 2 12.17 2 5L2 3Z" fill="#9CA3AF" fill-opacity="1.000000" fill-rule="nonzero"/>
	</g>
</svg>
